# xmcd
#
# Track frame offsets: 
#        182
#        3225
#        15530
#        26727
#        43355
#        57005
#        70007
#        86972
#        111140
#        125325
#        138695
#        155545
#        169020
#        180295
#
# Disc length: 2699 seconds
#
# Revision: 4
# Processed by: cddbd v1.5.2PL0 Copyright (c) Steve Scherf et al.
# Submitted via: ExactAudioCopy v0.95b4
#
DISCID=b40a890e
DTITLE=Pow Wow - Pow woW
DYEAR=1995
DGENRE=Blues
TTITLE0=Song of the people
TTITLE1=L'oasis
TTITLE2=Zombies dans Paris
TTITLE3=Une autre ville
TTITLE4=Dis-le-moi en face
TTITLE5=Mauvais
TTITLE6=Et que Dieu me damne
TTITLE7=Le temps est lent
TTITLE8=Le manège
TTITLE9=Le pont Mirabeau
TTITLE10=Tu me manques parfois
TTITLE11=Le vent
TTITLE12=Puzzle
TTITLE13=Hé ho là-haut
EXTD=
EXTT0=
EXTT1=
EXTT2=
EXTT3=
EXTT4=
EXTT5=
EXTT6=
EXTT7=
EXTT8=
EXTT9=
EXTT10=
EXTT11=
EXTT12=
EXTT13=
PLAYORDER=
